Coordinates
version=1
nRows=12
nColumns=24
inDegrees=yes

Units are S.I. units (second, meters, Newtons, ...)
Angles are in degrees.

endheader
time	pelvis_tilt	pelvis_list	pelvis_rotation	pelvis_tx	pelvis_ty	pelvis_tz	hip_flexion_r	hip_adduction_r	hip_rotation_r	knee_angle_r	ankle_angle_r	subtalar_angle_r	mtp_angle_r	hip_flexion_l	hip_adduction_l	hip_rotation_l	knee_angle_l	ankle_angle_l	subtalar_angle_l	mtp_angle_l	lumbar_extension	lumbar_bending	lumbar_rotation
      0.79566667	     -0.04014520	     -0.56143947	      1.47824075	     -0.47263284	      0.99859198	      0.34519101	      9.50889680	      5.22324343	     -4.16058051	    -13.52479066	      7.04279609	     -6.47979238	      5.13234674	     19.00724334	     -1.16730621	      1.94026218	    -68.02438431	     -5.40203700	     -7.37958843	      2.06484026	      0.65124224	      3.46226538	      2.88398453
      0.79983333	     -0.01221733	     -0.48262031	      1.34861786	     -0.46769033	      0.99923381	      0.34546237	      9.01317690	      5.16451694	     -4.11344640	    -13.24564436	      7.17241404	     -6.26795576	      5.15122497	     19.52852353	     -1.03927741	      1.94723219	    -67.77266969	     -4.76989636	     -7.62897523	      1.99369633	      0.56473844	      3.38286012	      3.04086070
      0.80400000	      0.05822243	     -0.39072630	      1.22100738	     -0.46272692	      0.99991883	      0.34572405	      8.46276759	      5.08777860	     -4.08568081	    -12.95072408	      7.31769354	     -5.96545608	      5.18407131	     19.98120973	     -0.90007750	      1.94986395	    -67.45611105	     -4.17013375	     -7.81438409	      1.84619185	      0.43047028	      3.29793438	      3.29932729
      0.80816667	      0.04264492	     -0.31036771	      1.06928911	     -0.45783958	      1.00041342	      0.34600547	      8.03358776	      5.02423722	     -4.01413859	    -12.70285022	      7.43577574	     -5.81503117	      5.19930675	     20.52923882	     -0.77818695	      1.92919944	    -67.11891110	     -3.56652460	     -8.04720827	      1.79047451	      0.38851988	      3.22191768	      3.38247942
      0.81233333	      0.07610583	     -0.22845307	      0.92250064	     -0.45292918	      1.00093119	      0.34630092	      7.54339186	      4.95737340	     -3.96968773	    -12.43946970	      7.59112195	     -5.52364872	      5.23578380	     21.00530301	     -0.66614291	      1.90436515	    -66.72744135	     -2.98972901	     -8.16160365	      1.62361774	      0.29189343	      3.13510792	      3.65226132
      0.81650000	      0.03793171	     -0.15576144	      0.78986656	     -0.44805159	      1.00131905	      0.34656572	      7.13062661	      4.90081429	     -3.89596085	    -12.17112349	      7.71025763	     -5.41093590	      5.24468231	     21.55671281	     -0.55096412	      1.90228772	    -66.29967556	     -2.48222864	     -8.35230469	      1.60045906	      0.29118505	      3.04719409	      3.69429568
      0.82066667	      0.11722719	     -0.07446478	      0.59782524	     -0.44316318	      1.00183149	      0.34689354	      6.60232008	      4.83298531	     -3.81576825	    -11.92602630	      7.85315839	     -5.12990798	      5.27485286	     21.94505752	     -0.46629629	      1.81440034	    -65.80854524	     -1.90745756	     -8.42844002	      1.46476193	      0.12605583	      2.97442149	      3.95675569
      0.82483333	      0.13743539	      0.00163771	      0.43635726	     -0.43830267	      1.00220342	      0.34716794	      6.13956619	      4.76538798	     -3.75492087	    -11.67951324	      7.98872767	     -4.87081789	      5.30918076	     22.39765412	     -0.36674633	      1.77271548	    -65.28758522	     -1.40918940	     -8.51849112	      1.29574032	      0.02826584	      2.89732427	      4.16275158
      0.82900000	      0.12040179	      0.06896398	      0.26523395	     -0.43345376	      1.00247634	      0.34746080	      5.72618463	      4.70690429	     -3.68584140	    -11.44877987	      8.13037260	     -4.63883873	      5.34578951	     22.88074762	     -0.28796714	      1.71383428	    -64.73138180	     -0.93675989	     -8.58538470	      1.11268229	     -0.01431725	      2.82432089	      4.33863228
      0.83316667	      0.15407694	      0.12638602	      0.09993032	     -0.42859866	      1.00279411	      0.34773370	      5.24509131	      4.65682431	     -3.61334999	    -11.18943244	      8.24967033	     -4.43643247	      5.37775031	     23.28932773	     -0.21948384	      1.66019334	    -64.12325004	     -0.49545705	     -8.64870348	      0.94962951	     -0.11805157	      2.77034869	      4.48194533
      0.83733333	      0.13544656	      0.19700805	     -0.09195825	     -0.42377041	      1.00299754	      0.34802112	      4.84304068	      4.59079411	     -3.51025569	    -10.97411791	      8.37446395	     -4.26035163	      5.39731989	     23.73782333	     -0.14639940	      1.57671614	    -63.47105596	     -0.07924673	     -8.71534527	      0.86590753	     -0.15905698	      2.70665896	      4.57878995
      0.84150000	      0.18061292	      0.24493463	     -0.24503354	     -0.41891379	      1.00324308	      0.34827242	      4.34571769	      4.54476793	     -3.46025191	    -10.70402908	      8.50293063	     -4.00781838	      5.43170795	     24.10584624	     -0.08930966	      1.53362269	    -62.78270305	      0.29901365	     -8.71038267	      0.69857619	     -0.28164522	      2.65849735	      4.79363948
